<?xml version="1.0" encoding="utf-8"?>
<!-- Generator: Adobe Illustrator 19.0.0, SVG Export Plug-In . SVG Version: 6.00 Build 0)  -->
<svg version="1.1" id="Capa_1" xmlns="http://www.w3.org/2000/svg" xmlns:xlink="http://www.w3.org/1999/xlink" x="0px" y="0px"
	 viewBox="-861 609.7 324.4 319.3" style="enable-background:new -861 609.7 324.4 319.3;" xml:space="preserve">
<g>
	<path d="M-626.5,813.1c-5.5,0-10.1,4.4-10.1,9.8c0,5.4,4.5,9.8,10.1,9.8c5.5,0,10.1-4.4,10.1-9.8S-620.9,813.1-626.5,813.1z" stroke = "rgb(0, 188, 212)" fill = "rgb(0, 188, 212)"/>
	<path d="M-595.6,813.2c1.4,0,2.6-1.1,2.6-2.5v-4.8c0-1.4-1.2-2.5-2.6-2.5c-1.4,0-2.6,1.1-2.6,2.5v4.8
		C-598.1,812.1-597,813.2-595.6,813.2z" stroke = "rgb(0, 188, 212)" fill = "rgb(0, 188, 212)"/>
	<path d="M-772.9,813.1c-5.5,0-10.1,4.4-10.1,9.8c0,5.4,4.5,9.8,10.1,9.8c5.5,0,10.1-4.4,10.1-9.8
		C-762.8,817.5-767.3,813.1-772.9,813.1z" stroke = "rgb(0, 188, 212)" fill = "rgb(0, 188, 212)"/>
	<path d="M-622.6,752.2h-22.6c-1.5,0-2.8,1.2-2.8,2.7v20.2c0,1.5,1.2,2.7,2.8,2.7h38.7c1.5,0,2.8-1.2,2.8-2.7l-12.5-20.2
		C-617.2,753.1-618.4,752.2-622.6,752.2z" stroke = "rgb(0, 188, 212)" fill = "rgb(0, 188, 212)"/>
	<path d="M-698.8,615.3c-85.1,0-154.1,69-154.1,154.1s69,154.1,154.1,154.1s154.1-69,154.1-154.1S-613.7,615.3-698.8,615.3z" fill = "white"/>
	<path d="M-698.8,615.3c-85.1,0-154.1,69-154.1,154.1s69,154.1,154.1,154.1s154.1-69,154.1-154.1S-613.7,615.3-698.8,615.3z
		 M-772.9,837.1c-8,0-14.5-6.4-14.5-14.2s6.5-14.2,14.5-14.2s14.5,6.4,14.5,14.2C-758.4,830.7-764.9,837.1-772.9,837.1z
		 M-662.7,818.3h-89.4h-1.8c-2.7-7.3-9.9-12.6-18.3-12.6c-8.3,0-15.4,5.1-18.2,12.2c-3.5-1-6-4.1-6-7.8v-0.7c0-4.5,3.7-8.1,8.3-8.1
		h125.4V818.3z M-662.7,796.5h-142v-76.8h142V796.5L-662.7,796.5z M-626.5,837.1c-8,0-14.5-6.4-14.5-14.2s6.5-14.2,14.5-14.2
		s14.5,6.4,14.5,14.2C-612,830.7-618.5,837.1-626.5,837.1z M-590.9,814.2c0,1.5-1.2,2.7-2.8,2.7h-14.5c-3.1-6.6-9.8-11.2-17.7-11.2
		s-14.7,4.6-17.7,11.2h-9.8c-1.5,0-2.8-1.2-2.8-2.7v-64.4c0-1.5,1.2-2.7,2.8-2.7h36.4c1.5,0,3.9,0.5,5.5,2.7l20.5,32.3L-590.9,814.2
		L-590.9,814.2L-590.9,814.2z" fill = "rgb(0, 188, 212)"/> 
</g>
</svg>
